<svg width="1920" height="1080" viewBox="0 0 1920 1080" fill="none" xmlns="http://www.w3.org/2000/svg">
<rect width="1920" height="1080" fill="#FFFEE7"/>
<path d="M1572.73 132.805H347.269C309.247 132.805 278.423 159.493 278.423 192.414V776.586C278.423 809.507 309.247 836.195 347.269 836.195H1572.73C1610.75 836.195 1641.58 809.507 1641.58 776.586V192.414C1641.58 159.493 1610.75 132.805 1572.73 132.805Z" stroke="black" stroke-width="10"/>
<path d="M450.539 687.172V281.828H588.231L725.923 430.852L863.615 281.828H1001.31V687.172H863.615V454.695L725.923 603.719L588.231 454.695V687.172H450.539ZM1311.12 687.172L1104.58 490.461H1242.27V281.828H1379.96V490.461H1517.65L1311.12 687.172Z" fill="black"/>
<path d="M853.712 942.272H849.872V962.528H853.232V968H840.704V962.528H843.44V950.624H843.248L835.04 965.456H832.352L823.52 950.048H823.328V962.528H826.304V968H813.968V962.528H817.328V942.272H813.488V936.8H822.704L833.792 956.144H833.984L844.4 936.8H853.712V942.272ZM888.195 968H875.763V962.528H878.259L877.107 959.36H866.499L865.203 962.528H868.131V968H855.843V962.528H858.675L867.603 942.272H863.283V936.8H873.987L885.219 962.528H888.195V968ZM875.379 954.752L872.115 945.968H871.827L868.323 954.752H875.379ZM918.22 968H910.252L904.06 956.096H899.836V962.528H903.196V968H890.044V962.528H893.404V942.272H890.044V936.8H904.156C908.028 936.8 911.004 937.6 913.084 939.2C915.164 940.768 916.204 943.12 916.204 946.256C916.204 948.368 915.66 950.144 914.572 951.584C913.484 952.992 912.044 954.048 910.252 954.752L914.476 962.528H918.22V968ZM909.292 946.4C909.292 944.832 908.828 943.76 907.9 943.184C906.972 942.576 905.34 942.272 903.004 942.272H899.836V951.008H902.908C905.372 951.008 907.052 950.608 907.948 949.808C908.844 949.008 909.292 947.872 909.292 946.4ZM950.701 968H937.117V962.528H939.997L934.285 954.848H930.445V962.528H933.085V968H920.653V962.528H924.013V942.272H920.653V936.8H933.229V942.272H930.445V949.616H934.381L939.901 942.272H937.213V936.8H950.173V942.272H946.669L939.229 951.632L947.485 962.528H950.701V968ZM983.429 952.256C983.429 956.992 982.037 960.8 979.253 963.68C976.469 966.56 972.613 968 967.685 968H952.997V962.528H956.357V942.272H952.997V936.8H967.301C972.645 936.8 976.661 938.224 979.349 941.072C982.069 943.92 983.429 947.648 983.429 952.256ZM976.517 952.352C976.517 945.632 973.397 942.272 967.157 942.272H962.789V962.528H967.157C970.165 962.528 972.469 961.728 974.069 960.128C975.701 958.528 976.517 955.936 976.517 952.352ZM1017.66 952.352C1017.66 956.768 1016.24 960.56 1013.39 963.728C1010.58 966.896 1006.64 968.48 1001.58 968.48C996.497 968.48 992.593 966.896 989.873 963.728C987.153 960.56 985.793 956.8 985.793 952.448C985.793 947.904 987.233 944.08 990.113 940.976C992.993 937.872 996.881 936.32 1001.78 936.32C1006.77 936.32 1010.66 937.904 1013.44 941.072C1016.26 944.208 1017.66 947.968 1017.66 952.352ZM1010.7 952.544C1010.7 949.216 1009.94 946.624 1008.4 944.768C1006.86 942.912 1004.64 941.984 1001.73 941.984C998.625 941.984 996.353 942.976 994.913 944.96C993.473 946.912 992.753 949.36 992.753 952.304C992.753 955.152 993.457 957.616 994.865 959.696C996.273 961.776 998.625 962.816 1001.92 962.816C1004.96 962.816 1007.18 961.872 1008.59 959.984C1010 958.064 1010.7 955.584 1010.7 952.544ZM1064.49 942.272H1061.99L1053.4 968H1048.84L1041.5 947.84H1041.26L1034.25 968H1029.59L1020.47 942.272H1017.79V936.8H1030.22V942.272H1027.34L1031.99 957.344H1032.28L1037.85 942.272H1035.4V936.8H1047.83V942.272H1045.63L1051.15 957.632H1051.43L1055.56 942.272H1052.2V936.8H1064.49V942.272ZM1100.26 942.272H1096.9V968L1093.3 968.048L1076.55 948.224H1076.36V962.528H1080.68V968H1067V962.528H1070.36V942.272H1066.47V936.8H1074.97L1090.71 955.328H1090.9V942.272H1086.39V936.8H1100.26V942.272Z" fill="black"/>
<rect x="4" y="-4" width="346" height="90" rx="16" transform="matrix(1 0 0 -1 783 993)" stroke="black" stroke-width="8"/>
</svg>
