<svg width="1920" height="1080" viewBox="0 0 1920 1080" fill="none" xmlns="http://www.w3.org/2000/svg">
<rect width="1920" height="1080" fill="url(#paint0_linear_29_2)"/>
<path d="M1362.21 308.57H557.788C532.829 308.57 512.596 326.094 512.596 347.711V731.289C512.596 752.906 532.829 770.43 557.788 770.43H1362.21C1387.17 770.43 1407.4 752.906 1407.4 731.289V347.711C1407.4 326.094 1387.17 308.57 1362.21 308.57Z" stroke="black" stroke-width="10"/>
<path d="M625.577 672.578V406.422H715.962L806.346 504.273L896.731 406.422H987.115V672.578H896.731V519.93L806.346 617.781L715.962 519.93V672.578H625.577ZM1190.48 672.578L1054.9 543.414H1145.29V406.422H1235.67V543.414H1326.06L1190.48 672.578Z" fill="black"/>
<path d="M1583.61 204H1570.46V198.528H1573.82V190.896H1560.62V198.528H1563.98V204H1550.83V198.528H1554.19V178.272H1550.83V172.8H1563.98V178.272H1560.62V185.472H1573.82V178.272H1570.46V172.8H1583.61V178.272H1580.25V198.528H1583.61V204ZM1615.66 183.36L1610.19 183.84L1609.23 178.272H1604.28V198.528H1609.37V204H1593.05V198.528H1597.85V178.272H1592.91L1591.95 183.84L1586.48 183.36L1587.44 172.8H1614.7L1615.66 183.36ZM1658.45 178.272H1654.61V198.528H1657.97V204H1645.44V198.528H1648.17V186.624H1647.98L1639.77 201.456H1637.09L1628.25 186.048H1628.06V198.528H1631.04V204H1618.7V198.528H1622.06V178.272H1618.22V172.8H1627.44L1638.53 192.144H1638.72L1649.13 172.8H1658.45V178.272ZM1685.25 204H1661.83V198.528H1665.19V178.272H1661.83V172.8H1675.99V178.272H1671.62V198.528H1679.78L1680.74 192.48L1686.21 192.96L1685.25 204ZM1711.11 203.328L1695.79 191.664V189.552L1711.06 177.648V183.504L1702.08 190.464L1711.11 197.472V203.328ZM1731 170.976L1721.64 204H1715.54L1724.9 170.976H1731ZM1749.53 191.664L1734.21 203.328V197.472L1743.24 190.464L1734.26 183.504V177.648L1749.53 189.552V191.664Z" fill="#FF9393"/>
<path d="M412.48 919.992L411.52 924.84H414.064V929.544H410.656L409.504 935.448H412.624V940.152H408.592L407.68 945H402.4L403.312 940.152H397.12L396.208 945H390.928L391.84 940.152H389.488V935.448H392.752L393.904 929.544H390.928V924.84H394.768L395.728 919.992H401.008L400.048 924.84H406.24L407.2 919.992H412.48ZM398.032 935.448H404.224L405.376 929.544H399.184L398.032 935.448ZM440.043 919.992L439.083 924.84H441.627V929.544H438.219L437.067 935.448H440.187V940.152H436.155L435.243 945H429.963L430.875 940.152H424.683L423.771 945H418.491L419.403 940.152H417.051V935.448H420.315L421.467 929.544H418.491V924.84H422.331L423.291 919.992H428.571L427.611 924.84H433.803L434.763 919.992H440.043ZM425.595 935.448H431.787L432.939 929.544H426.747L425.595 935.448ZM471.566 938.28C471.246 940.776 470.382 942.6 468.974 943.752C467.566 944.904 465.742 945.48 463.502 945.48C461.102 945.48 459.15 944.888 457.646 943.704C456.174 942.488 455.438 940.76 455.438 938.52V927.768H452.366V923.352H455.438V916.776H461.63V923.352H469.406V927.768H461.63V937.464C461.63 939.352 462.494 940.296 464.222 940.296C464.606 940.296 465.118 940.136 465.758 939.816C466.43 939.464 466.862 938.488 467.054 936.888L471.566 938.28ZM475.379 919.512V913.08H481.571V919.512H475.379ZM484.691 945H472.739V940.344H475.619V928.056H472.499V923.352H481.811V940.344H484.691V945ZM505.035 938.28C504.715 940.776 503.851 942.6 502.443 943.752C501.035 944.904 499.211 945.48 496.971 945.48C494.571 945.48 492.619 944.888 491.115 943.704C489.643 942.488 488.907 940.76 488.907 938.52V927.768H485.835V923.352H488.907V916.776H495.099V923.352H502.875V927.768H495.099V937.464C495.099 939.352 495.963 940.296 497.691 940.296C498.075 940.296 498.587 940.136 499.227 939.816C499.899 939.464 500.331 938.488 500.523 936.888L505.035 938.28ZM517.488 945H505.536V940.344H508.416V916.68H505.296V911.976H514.608V940.344H517.488V945ZM540.583 938.184C540.423 940.104 539.479 941.8 537.751 943.272C536.023 944.744 533.607 945.48 530.503 945.48C527.271 945.48 524.599 944.568 522.487 942.744C520.407 940.92 519.367 938.2 519.367 934.584C519.367 931.256 520.311 928.488 522.199 926.28C524.119 924.04 526.791 922.92 530.215 922.92C533.223 922.92 535.655 923.784 537.511 925.512C539.399 927.24 540.359 929.512 540.391 932.328C540.391 933.384 540.279 934.424 540.055 935.448H525.847C526.199 938.872 527.895 940.584 530.935 940.584C532.599 940.584 533.719 940.184 534.295 939.384C534.903 938.584 535.271 937.864 535.399 937.224L540.583 938.184ZM534.007 931.848C534.135 930.76 533.895 929.736 533.287 928.776C532.711 927.816 531.687 927.336 530.215 927.336C528.935 927.336 527.943 927.752 527.239 928.584C526.535 929.416 526.087 930.504 525.895 931.848H534.007Z" fill="#7371FF"/>
<path d="M90.216 700.904V651.32H100.92V655.496H95.448V696.728H100.92V700.904H90.216ZM124.713 689H113.817V684.344H115.401L112.233 680.936L109.113 684.344H110.505V689H100.377V684.344H103.353L109.305 678.344L102.777 672.008H100.617V667.352H111.561V672.008H110.073L113.001 675.224L116.121 672.008H114.681V667.352H124.089V672.008H121.929L116.025 677.672L122.601 684.344H124.713V689ZM134.792 700.904H124.088V696.728H129.56V655.496H124.088V651.32H134.792V700.904ZM166.441 682.28C166.121 684.776 165.257 686.6 163.849 687.752C162.441 688.904 160.617 689.48 158.377 689.48C155.977 689.48 154.025 688.888 152.521 687.704C151.049 686.488 150.313 684.76 150.313 682.52V671.768H147.241V667.352H150.313V660.776H156.505V667.352H164.281V671.768H156.505V681.464C156.505 683.352 157.369 684.296 159.097 684.296C159.481 684.296 159.993 684.136 160.633 683.816C161.305 683.464 161.737 682.488 161.929 680.888L166.441 682.28ZM169.342 668.888C171.23 668.12 172.798 667.608 174.046 667.352C175.326 667.064 176.846 666.92 178.606 666.92C180.942 666.92 182.958 667.528 184.654 668.744C186.35 669.96 187.198 671.8 187.198 674.264V683.672C187.198 684.792 187.694 685.352 188.686 685.352C188.974 685.352 189.278 685.304 189.598 685.208L189.646 688.472C188.398 689.144 187.102 689.48 185.758 689.48C182.91 689.48 181.326 688.056 181.006 685.208V685.16C180.398 686.248 179.518 687.24 178.366 688.136C177.246 689.032 175.806 689.48 174.046 689.48C172.478 689.48 170.974 689.016 169.534 688.088C168.094 687.16 167.374 685.56 167.374 683.288C167.374 680.632 168.43 678.872 170.542 678.008C172.686 677.144 174.99 676.712 177.454 676.712C178.83 676.712 180.014 676.776 181.006 676.904V676.184C181.006 675.064 180.846 673.976 180.526 672.92C180.238 671.864 179.214 671.336 177.454 671.336C176.814 671.336 176.222 671.384 175.678 671.48C175.166 671.544 174.654 671.704 174.142 671.96L173.326 675.032L168.382 674.504L169.342 668.888ZM181.006 680.168V679.88C180.494 679.816 179.966 679.752 179.422 679.688C178.91 679.624 178.398 679.592 177.886 679.592C176.798 679.592 175.838 679.8 175.006 680.216C174.174 680.6 173.758 681.384 173.758 682.568C173.758 683.272 173.95 683.864 174.334 684.344C174.718 684.824 175.374 685.064 176.302 685.064C177.39 685.064 178.398 684.68 179.326 683.912C180.286 683.112 180.846 681.864 181.006 680.168ZM211.239 682.376C211.239 684.776 210.279 686.568 208.359 687.752C206.471 688.904 204.007 689.48 200.967 689.48C199.399 689.48 197.815 689.32 196.215 689C194.647 688.648 193.143 688.104 191.703 687.368L192.567 681.32L197.367 681.848V684.536C197.943 684.728 198.551 684.856 199.191 684.92C199.831 684.952 200.311 684.968 200.631 684.968C201.815 684.968 202.839 684.776 203.703 684.392C204.567 684.008 204.999 683.432 204.999 682.664C204.999 681.736 204.343 681.128 203.031 680.84C201.719 680.552 200.199 680.264 198.471 679.976C196.743 679.688 195.223 679.096 193.911 678.2C192.599 677.304 191.943 675.784 191.943 673.64C191.943 670.984 192.967 669.208 195.015 668.312C197.095 667.384 199.239 666.92 201.447 666.92C204.327 666.92 207.031 667.576 209.559 668.888L210.087 674.408L205.287 674.936L204.903 671.912C203.847 671.56 202.711 671.384 201.495 671.384C200.695 671.384 200.007 671.56 199.431 671.912C198.887 672.232 198.615 672.744 198.615 673.448C198.615 674.376 199.239 675 200.487 675.32C201.767 675.608 203.239 675.896 204.903 676.184C206.599 676.472 208.071 677.064 209.319 677.96C210.599 678.824 211.239 680.296 211.239 682.376ZM238.263 689H227.175V684.344H229.191L225.447 680.072H222.231V684.344H224.199V689H213.159V684.344H216.039V660.68H212.919V655.976H222.231V675.704H225.831L228.999 672.056H226.407V667.352H237.255V672.056H234.903L230.247 677.336L236.391 684.344H238.263V689Z" fill="#FFACCD"/>
<path d="M1429.95 883.264L1428.32 885.616L1418.96 881.248L1422.18 876.4L1429.95 883.264ZM1451.09 883.264L1449.46 885.616L1440.1 881.248L1443.32 876.4L1451.09 883.264ZM1472.23 883.264L1470.6 885.616L1461.24 881.248L1464.46 876.4L1472.23 883.264ZM1479.36 884.512V878.08H1485.55V884.512H1479.36ZM1485.55 909.232C1485.55 913.328 1484.8 916.352 1483.29 918.304C1481.79 920.288 1478.94 921.072 1474.75 920.656L1474.56 916.576C1475.87 916.576 1476.99 916.208 1477.92 915.472C1478.88 914.768 1479.36 912.688 1479.36 909.232V893.056H1476V888.352H1485.55V909.232ZM1491.39 889.888C1493.28 889.12 1494.85 888.608 1496.09 888.352C1497.37 888.064 1498.89 887.92 1500.65 887.92C1502.99 887.92 1505.01 888.528 1506.7 889.744C1508.4 890.96 1509.25 892.8 1509.25 895.264V904.672C1509.25 905.792 1509.74 906.352 1510.73 906.352C1511.02 906.352 1511.33 906.304 1511.65 906.208L1511.69 909.472C1510.45 910.144 1509.15 910.48 1507.81 910.48C1504.96 910.48 1503.37 909.056 1503.05 906.208V906.16C1502.45 907.248 1501.57 908.24 1500.41 909.136C1499.29 910.032 1497.85 910.48 1496.09 910.48C1494.53 910.48 1493.02 910.016 1491.58 909.088C1490.14 908.16 1489.42 906.56 1489.42 904.288C1489.42 901.632 1490.48 899.872 1492.59 899.008C1494.73 898.144 1497.04 897.712 1499.5 897.712C1500.88 897.712 1502.06 897.776 1503.05 897.904V897.184C1503.05 896.064 1502.89 894.976 1502.57 893.92C1502.29 892.864 1501.26 892.336 1499.5 892.336C1498.86 892.336 1498.27 892.384 1497.73 892.48C1497.21 892.544 1496.7 892.704 1496.19 892.96L1495.37 896.032L1490.43 895.504L1491.39 889.888ZM1503.05 901.168V900.88C1502.54 900.816 1502.01 900.752 1501.47 900.688C1500.96 900.624 1500.45 900.592 1499.93 900.592C1498.85 900.592 1497.89 900.8 1497.05 901.216C1496.22 901.6 1495.81 902.384 1495.81 903.568C1495.81 904.272 1496 904.864 1496.38 905.344C1496.77 905.824 1497.42 906.064 1498.35 906.064C1499.44 906.064 1500.45 905.68 1501.37 904.912C1502.33 904.112 1502.89 902.864 1503.05 901.168ZM1536.48 893.008H1534.27L1526.54 910H1522.08L1513.92 893.008H1511.61V888.352H1522.65V893.008H1520.59L1524.81 902.08H1525.1L1528.32 893.008H1526.59V888.352H1536.48V893.008ZM1539.9 889.888C1541.79 889.12 1543.36 888.608 1544.61 888.352C1545.89 888.064 1547.41 887.92 1549.17 887.92C1551.5 887.92 1553.52 888.528 1555.22 889.744C1556.91 890.96 1557.76 892.8 1557.76 895.264V904.672C1557.76 905.792 1558.26 906.352 1559.25 906.352C1559.54 906.352 1559.84 906.304 1560.16 906.208L1560.21 909.472C1558.96 910.144 1557.66 910.48 1556.32 910.48C1553.47 910.48 1551.89 909.056 1551.57 906.208V906.16C1550.96 907.248 1550.08 908.24 1548.93 909.136C1547.81 910.032 1546.37 910.48 1544.61 910.48C1543.04 910.48 1541.54 910.016 1540.1 909.088C1538.66 908.16 1537.94 906.56 1537.94 904.288C1537.94 901.632 1538.99 899.872 1541.1 899.008C1543.25 898.144 1545.55 897.712 1548.02 897.712C1549.39 897.712 1550.58 897.776 1551.57 897.904V897.184C1551.57 896.064 1551.41 894.976 1551.09 893.92C1550.8 892.864 1549.78 892.336 1548.02 892.336C1547.38 892.336 1546.78 892.384 1546.24 892.48C1545.73 892.544 1545.22 892.704 1544.7 892.96L1543.89 896.032L1538.94 895.504L1539.9 889.888ZM1551.57 901.168V900.88C1551.06 900.816 1550.53 900.752 1549.98 900.688C1549.47 900.624 1548.96 900.592 1548.45 900.592C1547.36 900.592 1546.4 900.8 1545.57 901.216C1544.74 901.6 1544.32 902.384 1544.32 903.568C1544.32 904.272 1544.51 904.864 1544.9 905.344C1545.28 905.824 1545.94 906.064 1546.86 906.064C1547.95 906.064 1548.96 905.68 1549.89 904.912C1550.85 904.112 1551.41 902.864 1551.57 901.168ZM1581.8 903.376C1581.8 905.776 1580.84 907.568 1578.92 908.752C1577.03 909.904 1574.57 910.48 1571.53 910.48C1569.96 910.48 1568.38 910.32 1566.78 910C1565.21 909.648 1563.71 909.104 1562.27 908.368L1563.13 902.32L1567.93 902.848V905.536C1568.51 905.728 1569.11 905.856 1569.75 905.92C1570.39 905.952 1570.87 905.968 1571.19 905.968C1572.38 905.968 1573.4 905.776 1574.27 905.392C1575.13 905.008 1575.56 904.432 1575.56 903.664C1575.56 902.736 1574.91 902.128 1573.59 901.84C1572.28 901.552 1570.76 901.264 1569.03 900.976C1567.31 900.688 1565.79 900.096 1564.47 899.2C1563.16 898.304 1562.51 896.784 1562.51 894.64C1562.51 891.984 1563.53 890.208 1565.58 889.312C1567.66 888.384 1569.8 887.92 1572.01 887.92C1574.89 887.92 1577.59 888.576 1580.12 889.888L1580.65 895.408L1575.85 895.936L1575.47 892.912C1574.41 892.56 1573.27 892.384 1572.06 892.384C1571.26 892.384 1570.57 892.56 1569.99 892.912C1569.45 893.232 1569.18 893.744 1569.18 894.448C1569.18 895.376 1569.8 896 1571.05 896.32C1572.33 896.608 1573.8 896.896 1575.47 897.184C1577.16 897.472 1578.63 898.064 1579.88 898.96C1581.16 899.824 1581.8 901.296 1581.8 903.376ZM1604.79 901.936C1604.57 903.92 1603.71 905.84 1602.2 907.696C1600.73 909.552 1598.25 910.48 1594.76 910.48C1591.63 910.48 1589.03 909.568 1586.99 907.744C1584.97 905.92 1583.96 903.184 1583.96 899.536C1583.96 895.696 1585.07 892.8 1587.27 890.848C1589.48 888.896 1592.15 887.92 1595.29 887.92C1596.47 887.92 1597.74 888.08 1599.08 888.4C1600.46 888.688 1601.8 889.184 1603.11 889.888L1604.07 896.464L1599.13 896.992L1598.41 893.44C1597.16 893.024 1596.07 892.816 1595.15 892.816C1593.83 892.816 1592.71 893.328 1591.79 894.352C1590.86 895.344 1590.39 896.976 1590.39 899.248C1590.39 903.472 1592.04 905.584 1595.34 905.584C1597.77 905.584 1599.19 904.048 1599.61 900.976L1604.79 901.936ZM1620.62 888.064C1621.23 888.064 1621.9 888.16 1622.63 888.352C1623.4 888.512 1624.15 888.816 1624.89 889.264L1625.85 896.848L1621.15 897.376L1620.33 893.68C1619.69 893.296 1619.13 893.104 1618.65 893.104C1617.95 893.104 1617.32 893.376 1616.78 893.92C1616.27 894.464 1616.01 895.264 1616.01 896.32V905.344H1619.85V910H1606.94V905.344H1609.82V893.056H1606.7V888.352H1615.53V892.48C1615.88 891.232 1616.44 890.192 1617.21 889.36C1618.01 888.496 1619.15 888.064 1620.62 888.064ZM1630.91 884.512V878.08H1637.1V884.512H1630.91ZM1640.22 910H1628.27V905.344H1631.15V893.056H1628.03V888.352H1637.34V905.344H1640.22V910ZM1667.43 898.672C1667.43 901.872 1666.58 904.64 1664.89 906.976C1663.22 909.312 1660.76 910.48 1657.49 910.48C1654.45 910.48 1652.25 909.408 1650.87 907.264V915.424H1654.71V920.224H1641.8V915.424H1644.68V893.008H1641.56V888.352H1650.87V892.48C1651.45 891.232 1652.31 890.16 1653.46 889.264C1654.61 888.368 1656.18 887.92 1658.17 887.92C1660.92 887.92 1663.14 888.864 1664.84 890.752C1666.57 892.64 1667.43 895.28 1667.43 898.672ZM1661 899.296C1661 897.184 1660.52 895.584 1659.56 894.496C1658.63 893.376 1657.43 892.816 1655.96 892.816C1654.36 892.816 1653.13 893.408 1652.26 894.592C1651.43 895.776 1650.98 897.28 1650.92 899.104L1650.87 899.872C1650.87 901.632 1651.33 903.024 1652.26 904.048C1653.19 905.072 1654.42 905.584 1655.96 905.584C1657.43 905.584 1658.63 905.072 1659.56 904.048C1660.52 903.024 1661 901.44 1661 899.296ZM1687.99 903.28C1687.67 905.776 1686.8 907.6 1685.4 908.752C1683.99 909.904 1682.16 910.48 1679.92 910.48C1677.52 910.48 1675.57 909.888 1674.07 908.704C1672.6 907.488 1671.86 905.76 1671.86 903.52V892.768H1668.79V888.352H1671.86V881.776H1678.05V888.352H1685.83V892.768H1678.05V902.464C1678.05 904.352 1678.92 905.296 1680.64 905.296C1681.03 905.296 1681.54 905.136 1682.18 904.816C1682.85 904.464 1683.28 903.488 1683.48 901.888L1687.99 903.28ZM1433.84 959.936C1433.62 961.92 1432.75 963.84 1431.25 965.696C1429.78 967.552 1427.3 968.48 1423.81 968.48C1420.67 968.48 1418.08 967.568 1416.03 965.744C1414.02 963.92 1413.01 961.184 1413.01 957.536C1413.01 953.696 1414.11 950.8 1416.32 948.848C1418.53 946.896 1421.2 945.92 1424.34 945.92C1425.52 945.92 1426.78 946.08 1428.13 946.4C1429.5 946.688 1430.85 947.184 1432.16 947.888L1433.12 954.464L1428.18 954.992L1427.46 951.44C1426.21 951.024 1425.12 950.816 1424.19 950.816C1422.88 950.816 1421.76 951.328 1420.83 952.352C1419.9 953.344 1419.44 954.976 1419.44 957.248C1419.44 961.472 1421.09 963.584 1424.38 963.584C1426.82 963.584 1428.24 962.048 1428.66 958.976L1433.84 959.936ZM1458.74 957.2C1458.74 960.624 1457.62 963.36 1455.38 965.408C1453.14 967.456 1450.29 968.48 1446.83 968.48C1443.51 968.48 1440.79 967.52 1438.67 965.6C1436.59 963.648 1435.55 960.928 1435.55 957.44C1435.55 954.272 1436.51 951.552 1438.43 949.28C1440.35 947.008 1443.27 945.872 1447.17 945.872C1451.07 945.872 1453.97 947.008 1455.86 949.28C1457.78 951.52 1458.74 954.16 1458.74 957.2ZM1452.35 957.008C1452.35 954.8 1451.84 953.184 1450.82 952.16C1449.79 951.136 1448.55 950.624 1447.07 950.624C1445.47 950.624 1444.21 951.2 1443.28 952.352C1442.39 953.472 1441.94 955.056 1441.94 957.104C1441.94 958.96 1442.35 960.528 1443.19 961.808C1444.05 963.088 1445.33 963.728 1447.03 963.728C1448.63 963.728 1449.91 963.136 1450.87 961.952C1451.86 960.736 1452.35 959.088 1452.35 957.008ZM1487.61 968H1475.65V963.344H1478.53V955.808C1478.53 953.952 1478.21 952.624 1477.57 951.824C1476.97 951.024 1476.05 950.624 1474.84 950.624C1473.37 950.624 1472.23 951.088 1471.43 952.016C1470.63 952.912 1470.21 954.096 1470.18 955.568V963.344H1473.06V968H1461.11V963.344H1463.99V951.056H1460.87V946.352H1470.18V949.664C1471.62 947.168 1473.94 945.92 1477.14 945.92C1479.19 945.92 1480.97 946.528 1482.47 947.744C1483.97 948.96 1484.73 950.848 1484.73 953.408V963.344H1487.61V968ZM1509.05 961.376C1509.05 963.776 1508.09 965.568 1506.17 966.752C1504.28 967.904 1501.82 968.48 1498.78 968.48C1497.21 968.48 1495.63 968.32 1494.03 968C1492.46 967.648 1490.96 967.104 1489.52 966.368L1490.38 960.32L1495.18 960.848V963.536C1495.76 963.728 1496.36 963.856 1497 963.92C1497.64 963.952 1498.12 963.968 1498.44 963.968C1499.63 963.968 1500.65 963.776 1501.52 963.392C1502.38 963.008 1502.81 962.432 1502.81 961.664C1502.81 960.736 1502.16 960.128 1500.84 959.84C1499.53 959.552 1498.01 959.264 1496.28 958.976C1494.56 958.688 1493.04 958.096 1491.72 957.2C1490.41 956.304 1489.76 954.784 1489.76 952.64C1489.76 949.984 1490.78 948.208 1492.83 947.312C1494.91 946.384 1497.05 945.92 1499.26 945.92C1502.14 945.92 1504.84 946.576 1507.37 947.888L1507.9 953.408L1503.1 953.936L1502.72 950.912C1501.66 950.56 1500.52 950.384 1499.31 950.384C1498.51 950.384 1497.82 950.56 1497.24 950.912C1496.7 951.232 1496.43 951.744 1496.43 952.448C1496.43 953.376 1497.05 954 1498.3 954.32C1499.58 954.608 1501.05 954.896 1502.72 955.184C1504.41 955.472 1505.88 956.064 1507.13 956.96C1508.41 957.824 1509.05 959.296 1509.05 961.376ZM1534.35 957.2C1534.35 960.624 1533.23 963.36 1530.99 965.408C1528.75 967.456 1525.9 968.48 1522.44 968.48C1519.12 968.48 1516.4 967.52 1514.28 965.6C1512.2 963.648 1511.16 960.928 1511.16 957.44C1511.16 954.272 1512.12 951.552 1514.04 949.28C1515.96 947.008 1518.88 945.872 1522.78 945.872C1526.68 945.872 1529.58 947.008 1531.47 949.28C1533.39 951.52 1534.35 954.16 1534.35 957.2ZM1527.96 957.008C1527.96 954.8 1527.45 953.184 1526.43 952.16C1525.4 951.136 1524.16 950.624 1522.68 950.624C1521.08 950.624 1519.82 951.2 1518.89 952.352C1518 953.472 1517.55 955.056 1517.55 957.104C1517.55 958.96 1517.96 960.528 1518.8 961.808C1519.66 963.088 1520.94 963.728 1522.64 963.728C1524.24 963.728 1525.52 963.136 1526.48 961.952C1527.47 960.736 1527.96 959.088 1527.96 957.008ZM1548.14 968H1536.19V963.344H1539.07V939.68H1535.95V934.976H1545.26V963.344H1548.14V968ZM1571.24 961.184C1571.08 963.104 1570.14 964.8 1568.41 966.272C1566.68 967.744 1564.26 968.48 1561.16 968.48C1557.93 968.48 1555.26 967.568 1553.14 965.744C1551.06 963.92 1550.02 961.2 1550.02 957.584C1550.02 954.256 1550.97 951.488 1552.86 949.28C1554.78 947.04 1557.45 945.92 1560.87 945.92C1563.88 945.92 1566.31 946.784 1568.17 948.512C1570.06 950.24 1571.02 952.512 1571.05 955.328C1571.05 956.384 1570.94 957.424 1570.71 958.448H1556.5C1556.86 961.872 1558.55 963.584 1561.59 963.584C1563.26 963.584 1564.38 963.184 1564.95 962.384C1565.56 961.584 1565.93 960.864 1566.06 960.224L1571.24 961.184ZM1564.66 954.848C1564.79 953.76 1564.55 952.736 1563.94 951.776C1563.37 950.816 1562.34 950.336 1560.87 950.336C1559.59 950.336 1558.6 950.752 1557.9 951.584C1557.19 952.416 1556.74 953.504 1556.55 954.848H1564.66ZM1429.95 999.264L1428.32 1001.62L1418.96 997.248L1422.18 992.4L1429.95 999.264ZM1451.09 999.264L1449.46 1001.62L1440.1 997.248L1443.32 992.4L1451.09 999.264ZM1472.23 999.264L1470.6 1001.62L1461.24 997.248L1464.46 992.4L1472.23 999.264Z" fill="#626262"/>
<path d="M1573.99 968V960.176H1581.34V968H1573.99Z" fill="#000002"/>
<path d="M1595.96 968H1584V963.344H1586.88V939.68H1583.76V934.976H1593.08V963.344H1595.96V968ZM1620.97 957.2C1620.97 960.624 1619.85 963.36 1617.61 965.408C1615.37 967.456 1612.52 968.48 1609.07 968.48C1605.74 968.48 1603.02 967.52 1600.91 965.6C1598.83 963.648 1597.79 960.928 1597.79 957.44C1597.79 954.272 1598.75 951.552 1600.67 949.28C1602.59 947.008 1605.5 945.872 1609.4 945.872C1613.31 945.872 1616.2 947.008 1618.09 949.28C1620.01 951.52 1620.97 954.16 1620.97 957.2ZM1614.59 957.008C1614.59 954.8 1614.08 953.184 1613.05 952.16C1612.03 951.136 1610.78 950.624 1609.31 950.624C1607.71 950.624 1606.44 951.2 1605.52 952.352C1604.62 953.472 1604.17 955.056 1604.17 957.104C1604.17 958.96 1604.59 960.528 1605.42 961.808C1606.28 963.088 1607.56 963.728 1609.26 963.728C1610.86 963.728 1612.14 963.136 1613.1 961.952C1614.09 960.736 1614.59 959.088 1614.59 957.008ZM1648.59 951.056H1645.71V966.896C1645.71 970.352 1644.74 973.168 1642.79 975.344C1640.83 977.552 1637.83 978.656 1633.76 978.656C1631.52 978.656 1629.38 978.192 1627.33 977.264C1625.28 976.368 1623.79 974.672 1622.87 972.176L1627.62 969.488C1629.15 972.336 1631.22 973.76 1633.81 973.76C1635.47 973.76 1636.83 973.152 1637.89 971.936C1638.98 970.752 1639.52 969.072 1639.52 966.896V964.064C1638.95 965.152 1638.1 966.08 1636.98 966.848C1635.86 967.616 1634.34 968 1632.42 968C1629.89 968 1627.68 967.12 1625.79 965.36C1623.91 963.6 1622.96 961.008 1622.96 957.584C1622.96 954.352 1623.83 951.6 1625.55 949.328C1627.28 947.056 1629.67 945.92 1632.71 945.92C1634.4 945.92 1635.81 946.272 1636.93 946.976C1638.05 947.68 1638.91 948.592 1639.52 949.712V946.352H1648.59V951.056ZM1639.52 957.056V956.528C1639.52 954.736 1639.06 953.344 1638.13 952.352C1637.23 951.328 1636.08 950.816 1634.67 950.816C1633.3 950.816 1632.15 951.328 1631.22 952.352C1630.32 953.376 1629.87 954.992 1629.87 957.2C1629.87 959.28 1630.27 960.784 1631.07 961.712C1631.91 962.64 1632.98 963.104 1634.29 963.104C1635.99 963.104 1637.28 962.496 1638.18 961.28C1639.07 960.064 1639.52 958.656 1639.52 957.056Z" fill="#6FEE49"/>
<path d="M1658.07 933.536H1663.54C1658.23 940.288 1655.57 947.456 1655.57 955.04C1655.57 958.752 1656.23 962.48 1657.54 966.224C1658.88 969.968 1660.88 973.488 1663.54 976.784H1657.97C1655.31 973.264 1653.38 969.68 1652.16 966.032C1650.95 962.352 1650.34 958.688 1650.34 955.04C1650.34 951.328 1650.96 947.664 1652.21 944.048C1653.49 940.432 1655.44 936.928 1658.07 933.536ZM1808.77 976.784H1803.3C1808.61 970.032 1811.27 962.864 1811.27 955.28C1811.27 951.568 1810.6 947.856 1809.25 944.144C1807.94 940.4 1805.96 936.864 1803.3 933.536H1808.87C1811.53 937.056 1813.46 940.656 1814.68 944.336C1815.89 947.984 1816.5 951.632 1816.5 955.28C1816.5 958.96 1815.88 962.608 1814.63 966.224C1813.38 969.84 1811.43 973.36 1808.77 976.784Z" fill="#7371FF"/>
<path d="M1673.33 935.888L1670.45 947.12H1664.41L1667.29 935.888H1673.33ZM1681.78 935.888L1678.9 947.12H1672.85L1675.73 935.888H1681.78ZM1709.64 968H1697.69V963.344H1700.57V955.808C1700.57 953.952 1700.23 952.624 1699.56 951.824C1698.92 951.024 1697.99 950.624 1696.78 950.624C1695.37 950.624 1694.26 951.056 1693.46 951.92C1692.7 952.784 1692.28 953.92 1692.22 955.328V963.344H1695.1V968H1683.14V963.344H1686.02V939.68H1683.14V934.976H1692.22V949.664C1693.66 947.168 1695.98 945.92 1699.18 945.92C1701.22 945.92 1703 946.528 1704.5 947.744C1706.01 948.96 1706.76 950.848 1706.76 953.408V963.344H1709.64V968ZM1732.49 961.184C1732.33 963.104 1731.39 964.8 1729.66 966.272C1727.93 967.744 1725.51 968.48 1722.41 968.48C1719.18 968.48 1716.51 967.568 1714.39 965.744C1712.31 963.92 1711.27 961.2 1711.27 957.584C1711.27 954.256 1712.22 951.488 1714.11 949.28C1716.03 947.04 1718.7 945.92 1722.12 945.92C1725.13 945.92 1727.56 946.784 1729.42 948.512C1731.31 950.24 1732.27 952.512 1732.3 955.328C1732.3 956.384 1732.19 957.424 1731.96 958.448H1717.75C1718.11 961.872 1719.8 963.584 1722.84 963.584C1724.51 963.584 1725.63 963.184 1726.2 962.384C1726.81 961.584 1727.18 960.864 1727.31 960.224L1732.49 961.184ZM1725.91 954.848C1726.04 953.76 1725.8 952.736 1725.19 951.776C1724.62 950.816 1723.59 950.336 1722.12 950.336C1720.84 950.336 1719.85 950.752 1719.15 951.584C1718.44 952.416 1717.99 953.504 1717.8 954.848H1725.91ZM1746.28 968H1734.33V963.344H1737.21V939.68H1734.09V934.976H1743.4V963.344H1746.28V968ZM1759.97 968H1748.02V963.344H1750.9V939.68H1747.78V934.976H1757.09V963.344H1759.97V968ZM1784.99 957.2C1784.99 960.624 1783.87 963.36 1781.63 965.408C1779.39 967.456 1776.54 968.48 1773.08 968.48C1769.76 968.48 1767.04 967.52 1764.92 965.6C1762.84 963.648 1761.8 960.928 1761.8 957.44C1761.8 954.272 1762.76 951.552 1764.68 949.28C1766.6 947.008 1769.52 945.872 1773.42 945.872C1777.32 945.872 1780.22 947.008 1782.11 949.28C1784.03 951.52 1784.99 954.16 1784.99 957.2ZM1778.6 957.008C1778.6 954.8 1778.09 953.184 1777.07 952.16C1776.04 951.136 1774.8 950.624 1773.32 950.624C1771.72 950.624 1770.46 951.2 1769.53 952.352C1768.64 953.472 1768.19 955.056 1768.19 957.104C1768.19 958.96 1768.6 960.528 1769.44 961.808C1770.3 963.088 1771.58 963.728 1773.28 963.728C1774.88 963.728 1776.16 963.136 1777.12 961.952C1778.11 960.736 1778.6 959.088 1778.6 957.008ZM1785.42 947.072L1788.3 935.84H1794.35L1791.47 947.072H1785.42ZM1793.87 947.072L1796.75 935.84H1802.8L1799.92 947.072H1793.87Z" fill="#5A7FED"/>
<path d="M499.712 121.272H495.872V141.528H499.232V147H486.704V141.528H489.44V129.624H489.248L481.04 144.456H478.352L469.52 129.048H469.328V141.528H472.304V147H459.968V141.528H463.328V121.272H459.488V115.8H468.704L479.792 135.144H479.984L490.4 115.8H499.712V121.272ZM534.195 147H521.763V141.528H524.259L523.107 138.36H512.499L511.203 141.528H514.131V147H501.843V141.528H504.675L513.603 121.272H509.283V115.8H519.987L531.219 141.528H534.195V147ZM521.379 133.752L518.115 124.968H517.827L514.323 133.752H521.379ZM564.22 147H556.252L550.06 135.096H545.836V141.528H549.196V147H536.044V141.528H539.404V121.272H536.044V115.8H550.156C554.028 115.8 557.004 116.6 559.084 118.2C561.164 119.768 562.204 122.12 562.204 125.256C562.204 127.368 561.66 129.144 560.572 130.584C559.484 131.992 558.044 133.048 556.252 133.752L560.476 141.528H564.22V147ZM555.292 125.4C555.292 123.832 554.828 122.76 553.9 122.184C552.972 121.576 551.34 121.272 549.004 121.272H545.836V130.008H548.908C551.372 130.008 553.052 129.608 553.948 128.808C554.844 128.008 555.292 126.872 555.292 125.4ZM596.701 147H583.117V141.528H585.997L580.285 133.848H576.445V141.528H579.085V147H566.653V141.528H570.013V121.272H566.653V115.8H579.229V121.272H576.445V128.616H580.381L585.901 121.272H583.213V115.8H596.173V121.272H592.669L585.229 130.632L593.485 141.528H596.701V147ZM629.429 131.256C629.429 135.992 628.037 139.8 625.253 142.68C622.469 145.56 618.613 147 613.685 147H598.997V141.528H602.357V121.272H598.997V115.8H613.301C618.645 115.8 622.661 117.224 625.349 120.072C628.069 122.92 629.429 126.648 629.429 131.256ZM622.517 131.352C622.517 124.632 619.397 121.272 613.157 121.272H608.789V141.528H613.157C616.165 141.528 618.469 140.728 620.069 139.128C621.701 137.528 622.517 134.936 622.517 131.352ZM663.665 131.352C663.665 135.768 662.241 139.56 659.393 142.728C656.577 145.896 652.641 147.48 647.585 147.48C642.497 147.48 638.593 145.896 635.873 142.728C633.153 139.56 631.793 135.8 631.793 131.448C631.793 126.904 633.233 123.08 636.113 119.976C638.993 116.872 642.881 115.32 647.777 115.32C652.769 115.32 656.657 116.904 659.441 120.072C662.257 123.208 663.665 126.968 663.665 131.352ZM656.705 131.544C656.705 128.216 655.937 125.624 654.401 123.768C652.865 121.912 650.641 120.984 647.729 120.984C644.625 120.984 642.353 121.976 640.913 123.96C639.473 125.912 638.753 128.36 638.753 131.304C638.753 134.152 639.457 136.616 640.865 138.696C642.273 140.776 644.625 141.816 647.921 141.816C650.961 141.816 653.185 140.872 654.593 138.984C656.001 137.064 656.705 134.584 656.705 131.544ZM710.49 121.272H707.994L699.402 147H694.842L687.498 126.84H687.258L680.25 147H675.594L666.474 121.272H663.786V115.8H676.218V121.272H673.338L677.994 136.344H678.282L683.85 121.272H681.402V115.8H693.834V121.272H691.626L697.146 136.632H697.434L701.562 121.272H698.202V115.8H710.49V121.272ZM746.262 121.272H742.902V147L739.302 147.048L722.55 127.224H722.358V141.528H726.678V147H712.998V141.528H716.358V121.272H712.47V115.8H720.966L736.71 134.328H736.902V121.272H732.39V115.8H746.262V121.272Z" fill="black"/>
<rect x="4" y="-4" width="258" height="90" rx="16" transform="matrix(1 0 0 -1 1511 229)" stroke="#FF9393" stroke-width="8"/>
<rect x="4" y="-4" width="221" height="90" rx="16" transform="matrix(1 0 0 -1 359 970)" stroke="#7371FF" stroke-width="8"/>
<rect x="4" y="-4" width="221" height="90" rx="16" transform="matrix(1 0 0 -1 58 714)" stroke="#FFACCD" stroke-width="8"/>
<rect x="4" y="-4" width="465" height="191" rx="16" transform="matrix(1 0 0 -1 1383 1036)" stroke="#757575" stroke-width="8"/>
<rect x="4" y="-4" width="346" height="90" rx="16" transform="matrix(1 0 0 -1 429 172)" stroke="black" stroke-width="8"/>
<defs>
<linearGradient id="paint0_linear_29_2" x1="960" y1="0" x2="960" y2="1080" gradientUnits="userSpaceOnUse">
<stop offset="0.120192" stop-color="#FEFFE3"/>
<stop offset="0.560096" stop-color="#7FE1FF"/>
<stop offset="1" stop-color="#FEFFE3"/>
</linearGradient>
</defs>
</svg>
