<svg width="1920" height="1080" viewBox="0 0 1920 1080" fill="none" xmlns="http://www.w3.org/2000/svg">
<rect width="1920" height="1080" fill="url(#paint0_linear_31_2)"/>
<g clip-path="url(#clip0_31_2)">
<path fill-rule="evenodd" clip-rule="evenodd" d="M413.496 361.453L567.686 450.477V628.523L413.496 717.547L259.306 628.523V450.477L413.496 361.453ZM276.606 460.465V591.245L389.863 395.075L276.606 460.465ZM413.496 388.743L282.939 614.879H544.053L413.496 388.743ZM526.753 632.179H300.239L413.496 697.569L526.753 632.179ZM550.385 591.245L437.129 395.075L550.385 460.465V591.245Z" fill="#E10098"/>
<path d="M267.936 491.892C288.062 491.892 304.377 475.577 304.377 455.451C304.377 435.324 288.062 419.009 267.936 419.009C247.81 419.009 231.495 435.324 231.495 455.451C231.495 475.577 247.81 491.892 267.936 491.892Z" fill="#E10098"/>
<path d="M267.936 659.971C288.062 659.971 304.377 643.655 304.377 623.529C304.377 603.403 288.062 587.087 267.936 587.087C247.81 587.087 231.495 603.403 231.495 623.529C231.495 643.655 247.81 659.971 267.936 659.971Z" fill="#E10098"/>
<path d="M413.496 744C433.622 744 449.937 727.684 449.937 707.558C449.937 687.432 433.622 671.116 413.496 671.116C393.37 671.116 377.055 687.432 377.055 707.558C377.055 727.684 393.37 744 413.496 744Z" fill="#E10098"/>
<path d="M559.036 659.971C579.162 659.971 595.477 643.655 595.477 623.529C595.477 603.403 579.162 587.087 559.036 587.087C538.91 587.087 522.594 603.403 522.594 623.529C522.594 643.655 538.91 659.971 559.036 659.971Z" fill="#E10098"/>
<path d="M559.036 491.913C579.162 491.913 595.477 475.597 595.477 455.471C595.477 435.345 579.162 419.029 559.036 419.029C538.91 419.029 522.594 435.345 522.594 455.471C522.594 475.597 538.91 491.913 559.036 491.913Z" fill="#E10098"/>
<path d="M413.496 407.884C433.622 407.884 449.937 391.568 449.937 371.442C449.937 351.316 433.622 335 413.496 335C393.37 335 377.055 351.316 377.055 371.442C377.055 391.568 393.37 407.884 413.496 407.884Z" fill="#E10098"/>
<path d="M776.987 627.946C755.687 627.946 739.156 621.811 727.397 609.541C715.639 597.271 709.418 580.826 708.739 560.206C708.567 555.093 708.481 546.998 708.481 535.921C708.481 524.844 708.567 516.749 708.739 511.637C709.418 491.016 715.639 474.571 727.397 462.301C739.156 450.031 755.687 443.896 776.987 443.896C791.474 443.896 803.658 446.623 813.543 452.076C823.424 457.529 830.753 464.006 835.526 471.504C840.467 478.832 843.109 485.393 843.448 491.187V491.698C843.448 493.061 842.937 494.169 841.915 495.021C840.892 495.873 839.616 496.299 838.078 496.299H832.459C830.925 496.299 829.817 495.959 829.134 495.277C828.451 494.595 827.772 493.232 827.089 491.187C824.193 482.155 818.57 474.571 810.218 468.436C802.038 462.301 790.963 459.234 776.987 459.234C761.139 459.234 748.616 463.579 739.413 472.271C730.379 480.962 725.524 494.51 724.841 512.915C724.669 518.027 724.587 525.696 724.587 535.921C724.587 546.146 724.669 553.815 724.841 558.927C725.524 577.332 730.379 590.881 739.413 599.572C748.616 608.263 761.139 612.609 776.987 612.609C792.836 612.609 805.617 608.093 815.33 599.061C825.044 590.029 829.899 576.651 829.899 558.927V545.891H785.425C783.719 545.891 782.357 545.379 781.335 544.357C780.312 543.164 779.801 541.716 779.801 540.011V536.432C779.801 534.728 780.312 533.365 781.335 532.342C782.357 531.149 783.719 530.553 785.425 530.553H840.123C842.001 530.553 843.448 531.064 844.471 532.087C845.493 533.109 846.005 534.558 846.005 536.432V558.927C846.005 572.561 843.277 584.575 837.825 594.971C832.373 605.366 824.447 613.461 814.054 619.255C803.658 625.049 791.302 627.946 776.987 627.946Z" fill="#E10098"/>
<path d="M887.685 625.39C885.984 625.39 884.618 624.879 883.595 623.856C882.573 622.834 882.062 621.471 882.062 619.766V498.344C882.062 496.64 882.573 495.277 883.595 494.254C884.618 493.061 885.984 492.465 887.685 492.465H891.775C893.481 492.465 894.843 493.061 895.865 494.254C897.059 495.277 897.656 496.64 897.656 498.344V510.103C903.791 498.344 915.378 492.465 932.421 492.465H941.877C943.582 492.465 944.944 492.976 945.966 493.999C946.989 495.021 947.5 496.384 947.5 498.089V501.667C947.5 503.372 946.989 504.735 945.966 505.757C944.944 506.78 943.582 507.291 941.877 507.291H930.887C920.662 507.291 912.568 510.274 906.601 516.238C900.638 522.203 897.656 530.297 897.656 540.522V619.766C897.656 621.471 897.059 622.834 895.865 623.856C894.843 624.879 893.481 625.39 891.775 625.39H887.685Z" fill="#E10098"/>
<path d="M1004.72 627.946C996.543 627.946 988.956 626.242 981.97 622.834C974.985 619.426 969.361 614.824 965.099 609.03C961.009 603.236 958.964 596.845 958.964 589.858C958.964 578.611 963.48 569.408 972.514 562.251C981.717 555.093 994.068 550.492 1009.58 548.447L1049.97 542.823V533.876C1049.97 524.503 1047.07 517.346 1041.27 512.404C1035.65 507.291 1026.96 504.735 1015.2 504.735C1006.51 504.735 999.352 506.439 993.729 509.848C988.277 513.256 984.784 517.346 983.25 522.118C982.567 524.163 981.717 525.611 980.694 526.463C979.839 527.145 978.649 527.486 977.115 527.486H973.537C972.003 527.486 970.637 526.974 969.447 525.952C968.424 524.759 967.913 523.396 967.913 521.862C967.913 518.113 969.615 513.767 973.026 508.825C976.432 503.713 981.717 499.282 988.874 495.533C996.031 491.783 1004.8 489.909 1015.2 489.909C1033.43 489.909 1046.39 494.254 1054.05 502.946C1061.72 511.637 1065.56 522.203 1065.56 534.643V619.766C1065.56 621.471 1065.05 622.834 1064.03 623.856C1063 624.879 1061.64 625.39 1059.94 625.39H1055.59C1053.88 625.39 1052.52 624.879 1051.5 623.856C1050.48 622.834 1049.97 621.471 1049.97 619.766V607.752C1046.21 613.376 1040.68 618.147 1033.35 622.067C1026.19 625.986 1016.65 627.946 1004.72 627.946ZM1007.28 613.12C1019.72 613.12 1029.94 609.03 1037.95 600.85C1045.96 592.67 1049.97 580.911 1049.97 565.574V556.883L1016.99 561.484C1003.02 563.358 992.453 566.596 985.295 571.198C978.138 575.799 974.559 581.593 974.559 588.58C974.559 596.419 977.794 602.469 984.273 606.729C990.919 610.99 998.587 613.12 1007.28 613.12Z" fill="#E10098"/>
<path d="M1111.86 673.959C1110.16 673.959 1108.79 673.448 1107.77 672.425C1106.75 671.403 1106.23 670.039 1106.23 668.335V498.089C1106.23 496.384 1106.75 495.021 1107.77 493.999C1108.79 492.976 1110.16 492.465 1111.86 492.465H1116.21C1117.91 492.465 1119.27 492.976 1120.3 493.999C1121.32 495.021 1121.83 496.384 1121.83 498.089V510.103C1131.71 496.64 1146.03 489.909 1164.77 489.909C1183.18 489.909 1196.72 495.788 1205.41 507.547C1214.28 519.135 1218.96 533.45 1219.48 550.492C1219.65 552.196 1219.73 555.008 1219.73 558.928C1219.73 562.847 1219.65 565.659 1219.48 567.363C1218.96 584.405 1214.28 598.805 1205.41 610.564C1196.72 622.152 1183.18 627.946 1164.77 627.946C1146.2 627.946 1131.88 621.215 1121.83 607.752V668.335C1121.83 670.039 1121.32 671.403 1120.3 672.425C1119.27 673.448 1117.91 673.959 1116.21 673.959H1111.86ZM1163.24 613.12C1177.04 613.12 1187.1 608.774 1193.4 600.083C1199.88 591.221 1203.37 579.889 1203.88 566.085C1204.05 564.381 1204.14 561.995 1204.14 558.928C1204.14 543.079 1201.07 530.127 1194.94 520.073C1188.8 509.848 1178.24 504.735 1163.24 504.735C1149.78 504.735 1139.64 509.251 1132.82 518.283C1126 527.145 1122.34 537.626 1121.83 549.725L1121.57 559.694L1121.83 569.664C1122 576.992 1123.62 583.979 1126.68 590.625C1129.75 597.101 1134.35 602.469 1140.49 606.729C1146.62 610.99 1154.21 613.12 1163.24 613.12Z" fill="#E10098"/>
<path d="M1260.39 625.39C1258.69 625.39 1257.32 624.879 1256.3 623.856C1255.27 622.834 1254.76 621.471 1254.76 619.766V449.52C1254.76 447.816 1255.27 446.452 1256.3 445.43C1257.32 444.407 1258.69 443.896 1260.39 443.896H1264.73C1266.44 443.896 1267.8 444.407 1268.82 445.43C1269.85 446.452 1270.36 447.816 1270.36 449.52V510.103C1275.47 503.457 1281.27 498.429 1287.74 495.021C1294.39 491.613 1302.91 489.909 1313.3 489.909C1330 489.909 1342.87 495.277 1351.9 506.013C1360.93 516.579 1365.45 530.297 1365.45 547.169V619.766C1365.45 621.471 1364.94 622.834 1363.92 623.856C1362.89 624.879 1361.53 625.39 1359.83 625.39H1355.48C1353.78 625.39 1352.41 624.879 1351.39 623.856C1350.37 622.834 1349.85 621.471 1349.85 619.766V548.447C1349.85 534.643 1346.45 523.907 1339.63 516.238C1332.98 508.569 1323.36 504.735 1310.75 504.735C1298.48 504.735 1288.68 508.654 1281.35 516.494C1274.02 524.162 1270.36 534.814 1270.36 548.447V619.766C1270.36 621.471 1269.85 622.834 1268.82 623.856C1267.8 624.879 1266.44 625.39 1264.73 625.39H1260.39Z" fill="#E10098"/>
<path d="M1524.65 642.006C1522.1 642.006 1519.37 640.046 1516.47 636.126L1505.23 620.533C1495 625.475 1483.07 627.946 1469.44 627.946C1425.64 627.946 1403.15 604.429 1401.96 557.394C1401.78 552.281 1401.7 545.124 1401.7 535.921C1401.7 526.719 1401.78 519.561 1401.96 514.449C1402.64 491.272 1408.94 473.719 1420.87 461.79C1432.8 449.861 1448.99 443.896 1469.44 443.896C1489.89 443.896 1506.08 449.861 1518.01 461.79C1529.94 473.719 1536.24 491.272 1536.92 514.449C1537.26 524.674 1537.43 531.831 1537.43 535.921C1537.43 540.011 1537.26 547.169 1536.92 557.394C1536.07 581.763 1529.85 599.657 1518.26 611.075L1534.62 634.081C1535.14 635.104 1535.39 636.041 1535.39 636.893C1535.39 638.256 1534.88 639.449 1533.86 640.472C1532.83 641.494 1531.64 642.006 1530.28 642.006H1524.65ZM1469.44 612.609C1484.78 612.609 1496.96 608.007 1506 598.805C1515.2 589.432 1520.14 575.202 1520.82 556.116C1521.16 545.891 1521.33 539.159 1521.33 535.921C1521.33 532.683 1521.16 525.952 1520.82 515.727C1520.14 496.64 1515.2 482.496 1506 473.293C1496.79 463.92 1484.6 459.234 1469.44 459.234C1454.27 459.234 1442.09 463.92 1432.89 473.293C1423.69 482.496 1418.74 496.64 1418.06 515.727C1417.89 520.839 1417.8 527.571 1417.8 535.921C1417.8 544.272 1417.89 551.003 1418.06 556.116C1418.74 575.202 1423.6 589.432 1432.63 598.805C1441.83 608.007 1454.1 612.609 1469.44 612.609Z" fill="#E10098"/>
<path d="M1583.73 625.39C1582.03 625.39 1580.66 624.879 1579.64 623.856C1578.62 622.834 1578.1 621.471 1578.1 619.766V452.076C1578.1 450.372 1578.62 449.009 1579.64 447.986C1580.66 446.964 1582.03 446.452 1583.73 446.452H1588.59C1590.29 446.452 1591.65 446.964 1592.68 447.986C1593.7 449.009 1594.21 450.372 1594.21 452.076V610.052H1682.4C1684.27 610.052 1685.72 610.564 1686.74 611.586C1687.77 612.609 1688.28 614.057 1688.28 615.932V619.766C1688.28 621.471 1687.68 622.834 1686.49 623.856C1685.46 624.879 1684.1 625.39 1682.4 625.39H1583.73Z" fill="#E10098"/>
</g>
<defs>
<linearGradient id="paint0_linear_31_2" x1="1430.87" y1="1080" x2="489.135" y2="6.06001e-05" gradientUnits="userSpaceOnUse">
<stop stop-color="#FFA1E1"/>
<stop offset="0.12" stop-color="white"/>
<stop offset="0.88" stop-color="white"/>
<stop offset="1" stop-color="#FFA1E1"/>
</linearGradient>
<clipPath id="clip0_31_2">
<rect width="1501" height="409" fill="white" transform="translate(209 335)"/>
</clipPath>
</defs>
</svg>
